<svg id="visual" viewBox="0 0 900 600" width="900" height="600" xmlns="http://www.w3.org/2000/svg" xmlns:xlink="http://www.w3.org/1999/xlink" version="1.1"><rect x="0" y="0" width="900" height="600" fill="#121214"></rect><path d="M0 395L129 380L257 415L386 379L514 410L643 367L771 368L900 410L900 601L771 601L643 601L514 601L386 601L257 601L129 601L0 601Z" fill="#282848"></path><path d="M0 395L129 463L257 415L386 403L514 469L643 443L771 447L900 471L900 601L771 601L643 601L514 601L386 601L257 601L129 601L0 601Z" fill="#2e2d4b"></path><path d="M0 466L129 496L257 510L386 509L514 476L643 473L771 476L900 451L900 601L771 601L643 601L514 601L386 601L257 601L129 601L0 601Z" fill="#34324f"></path><path d="M0 526L129 486L257 514L386 528L514 533L643 486L771 510L900 509L900 601L771 601L643 601L514 601L386 601L257 601L129 601L0 601Z" fill="#393753"></path><path d="M0 550L129 566L257 547L386 538L514 550L643 537L771 564L900 559L900 601L771 601L643 601L514 601L386 601L257 601L129 601L0 601Z" fill="#3f3d56"></path></svg>