<svg id="visual" viewBox="0 0 900 600" width="900" height="600" xmlns="http://www.w3.org/2000/svg" xmlns:xlink="http://www.w3.org/1999/xlink" version="1.1"><rect x="0" y="0" width="900" height="600" fill="#001220"></rect><path d="M0 430L15 433.3C30 436.7 60 443.3 90 441.8C120 440.3 150 430.7 180 422C210 413.3 240 405.7 270 404.2C300 402.7 330 407.3 360 416C390 424.7 420 437.3 450 436.5C480 435.7 510 421.3 540 413C570 404.7 600 402.3 630 413.2C660 424 690 448 720 455.3C750 462.7 780 453.3 810 441.2C840 429 870 414 885 406.5L900 399L900 601L885 601C870 601 840 601 810 601C780 601 750 601 720 601C690 601 660 601 630 601C600 601 570 601 540 601C510 601 480 601 450 601C420 601 390 601 360 601C330 601 300 601 270 601C240 601 210 601 180 601C150 601 120 601 90 601C60 601 30 601 15 601L0 601Z" fill="#3f3d56"></path><path d="M0 446L15 450.5C30 455 60 464 90 462.3C120 460.7 150 448.3 180 452C210 455.7 240 475.3 270 476.8C300 478.3 330 461.7 360 459.8C390 458 420 471 450 479.3C480 487.7 510 491.3 540 486.7C570 482 600 469 630 465C660 461 690 466 720 470C750 474 780 477 810 473.3C840 469.7 870 459.3 885 454.2L900 449L900 601L885 601C870 601 840 601 810 601C780 601 750 601 720 601C690 601 660 601 630 601C600 601 570 601 540 601C510 601 480 601 450 601C420 601 390 601 360 601C330 601 300 601 270 601C240 601 210 601 180 601C150 601 120 601 90 601C60 601 30 601 15 601L0 601Z" fill="#3b3953"></path><path d="M0 507L15 499.5C30 492 60 477 90 471C120 465 150 468 180 467.3C210 466.7 240 462.3 270 467.7C300 473 330 488 360 492.7C390 497.3 420 491.7 450 491.3C480 491 510 496 540 494.7C570 493.3 600 485.7 630 480C660 474.3 690 470.7 720 467.3C750 464 780 461 810 464.8C840 468.7 870 479.3 885 484.7L900 490L900 601L885 601C870 601 840 601 810 601C780 601 750 601 720 601C690 601 660 601 630 601C600 601 570 601 540 601C510 601 480 601 450 601C420 601 390 601 360 601C330 601 300 601 270 601C240 601 210 601 180 601C150 601 120 601 90 601C60 601 30 601 15 601L0 601Z" fill="#363450"></path><path d="M0 514L15 510.5C30 507 60 500 90 500.3C120 500.7 150 508.3 180 511.8C210 515.3 240 514.7 270 510.7C300 506.7 330 499.3 360 497.7C390 496 420 500 450 502.5C480 505 510 506 540 509.2C570 512.3 600 517.7 630 521.3C660 525 690 527 720 522.3C750 517.7 780 506.3 810 506.5C840 506.7 870 518.3 885 524.2L900 530L900 601L885 601C870 601 840 601 810 601C780 601 750 601 720 601C690 601 660 601 630 601C600 601 570 601 540 601C510 601 480 601 450 601C420 601 390 601 360 601C330 601 300 601 270 601C240 601 210 601 180 601C150 601 120 601 90 601C60 601 30 601 15 601L0 601Z" fill="#32304e"></path><path d="M0 555L15 550C30 545 60 535 90 533.2C120 531.3 150 537.7 180 538C210 538.3 240 532.7 270 528.8C300 525 330 523 360 522.8C390 522.7 420 524.3 450 525.3C480 526.3 510 526.7 540 527.8C570 529 600 531 630 534C660 537 690 541 720 538.7C750 536.3 780 527.7 810 526.5C840 525.3 870 531.7 885 534.8L900 538L900 601L885 601C870 601 840 601 810 601C780 601 750 601 720 601C690 601 660 601 630 601C600 601 570 601 540 601C510 601 480 601 450 601C420 601 390 601 360 601C330 601 300 601 270 601C240 601 210 601 180 601C150 601 120 601 90 601C60 601 30 601 15 601L0 601Z" fill="#2d2c4b"></path><path d="M0 582L15 580.7C30 579.3 60 576.7 90 575.8C120 575 150 576 180 574.7C210 573.3 240 569.7 270 568C300 566.3 330 566.7 360 564.7C390 562.7 420 558.3 450 559.2C480 560 510 566 540 567.2C570 568.3 600 564.7 630 564.5C660 564.3 690 567.7 720 566C750 564.3 780 557.7 810 559.2C840 560.7 870 570.3 885 575.2L900 580L900 601L885 601C870 601 840 601 810 601C780 601 750 601 720 601C690 601 660 601 630 601C600 601 570 601 540 601C510 601 480 601 450 601C420 601 390 601 360 601C330 601 300 601 270 601C240 601 210 601 180 601C150 601 120 601 90 601C60 601 30 601 15 601L0 601Z" fill="#282848"></path></svg>