<svg id="visual" viewBox="0 0 900 600" width="900" height="600" xmlns="http://www.w3.org/2000/svg" xmlns:xlink="http://www.w3.org/1999/xlink" version="1.1"><path d="M0 121L13.7 118C27.3 115 54.7 109 82 114C109.3 119 136.7 135 163.8 156C191 177 218 203 245.2 204C272.3 205 299.7 181 327 182C354.3 183 381.7 209 409 205C436.3 201 463.7 167 491 140C518.3 113 545.7 93 573 98C600.3 103 627.7 133 654.8 145C682 157 709 151 736.2 161C763.3 171 790.7 197 818 205C845.3 213 872.7 203 886.3 198L900 193L900 0L886.3 0C872.7 0 845.3 0 818 0C790.7 0 763.3 0 736.2 0C709 0 682 0 654.8 0C627.7 0 600.3 0 573 0C545.7 0 518.3 0 491 0C463.7 0 436.3 0 409 0C381.7 0 354.3 0 327 0C299.7 0 272.3 0 245.2 0C218 0 191 0 163.8 0C136.7 0 109.3 0 82 0C54.7 0 27.3 0 13.7 0L0 0Z" fill="#333338"></path><path d="M0 307L13.7 326C27.3 345 54.7 383 82 389C109.3 395 136.7 369 163.8 352C191 335 218 327 245.2 334C272.3 341 299.7 363 327 366C354.3 369 381.7 353 409 347C436.3 341 463.7 345 491 338C518.3 331 545.7 313 573 312C600.3 311 627.7 327 654.8 323C682 319 709 295 736.2 305C763.3 315 790.7 359 818 375C845.3 391 872.7 379 886.3 373L900 367L900 191L886.3 196C872.7 201 845.3 211 818 203C790.7 195 763.3 169 736.2 159C709 149 682 155 654.8 143C627.7 131 600.3 101 573 96C545.7 91 518.3 111 491 138C463.7 165 436.3 199 409 203C381.7 207 354.3 181 327 180C299.7 179 272.3 203 245.2 202C218 201 191 175 163.8 154C136.7 133 109.3 117 82 112C54.7 107 27.3 113 13.7 116L0 119Z" fill="#222225"></path><path d="M0 355L13.7 380C27.3 405 54.7 455 82 468C109.3 481 136.7 457 163.8 438C191 419 218 405 245.2 412C272.3 419 299.7 447 327 454C354.3 461 381.7 447 409 435C436.3 423 463.7 413 491 401C518.3 389 545.7 375 573 376C600.3 377 627.7 393 654.8 394C682 395 709 381 736.2 386C763.3 391 790.7 415 818 430C845.3 445 872.7 451 886.3 454L900 457L900 365L886.3 371C872.7 377 845.3 389 818 373C790.7 357 763.3 313 736.2 303C709 293 682 317 654.8 321C627.7 325 600.3 309 573 310C545.7 311 518.3 329 491 336C463.7 343 436.3 339 409 345C381.7 351 354.3 367 327 364C299.7 361 272.3 339 245.2 332C218 325 191 333 163.8 350C136.7 367 109.3 393 82 387C54.7 381 27.3 343 13.7 324L0 305Z" fill="#121214"></path><path d="M0 487L13.7 497C27.3 507 54.7 527 82 534C109.3 541 136.7 535 163.8 516C191 497 218 465 245.2 463C272.3 461 299.7 489 327 498C354.3 507 381.7 497 409 494C436.3 491 463.7 495 491 488C518.3 481 545.7 463 573 467C600.3 471 627.7 497 654.8 499C682 501 709 479 736.2 476C763.3 473 790.7 489 818 498C845.3 507 872.7 509 886.3 510L900 511L900 455L886.3 452C872.7 449 845.3 443 818 428C790.7 413 763.3 389 736.2 384C709 379 682 393 654.8 392C627.7 391 600.3 375 573 374C545.7 373 518.3 387 491 399C463.7 411 436.3 421 409 433C381.7 445 354.3 459 327 452C299.7 445 272.3 417 245.2 410C218 403 191 417 163.8 436C136.7 455 109.3 479 82 466C54.7 453 27.3 403 13.7 378L0 353Z" fill="#101012"></path><path d="M0 601L13.7 601C27.3 601 54.7 601 82 601C109.3 601 136.7 601 163.8 601C191 601 218 601 245.2 601C272.3 601 299.7 601 327 601C354.3 601 381.7 601 409 601C436.3 601 463.7 601 491 601C518.3 601 545.7 601 573 601C600.3 601 627.7 601 654.8 601C682 601 709 601 736.2 601C763.3 601 790.7 601 818 601C845.3 601 872.7 601 886.3 601L900 601L900 509L886.3 508C872.7 507 845.3 505 818 496C790.7 487 763.3 471 736.2 474C709 477 682 499 654.8 497C627.7 495 600.3 469 573 465C545.7 461 518.3 479 491 486C463.7 493 436.3 489 409 492C381.7 495 354.3 505 327 496C299.7 487 272.3 459 245.2 461C218 463 191 495 163.8 514C136.7 533 109.3 539 82 532C54.7 525 27.3 505 13.7 495L0 485Z" fill="#0e0e10"></path></svg>